<svg width="175" height="63" viewBox="0 0 175 63" fill="none" xmlns="http://www.w3.org/2000/svg">
<path d="M1.264 38V26.72H3.072L7.216 36.048H6.72L10.864 26.72H12.656V38H10.784V29.632H11.36L7.568 38H6.336L2.544 29.632H3.136V38H1.264ZM18.1299 38.16C17.4259 38.16 16.8072 37.9947 16.2739 37.664C15.7405 37.3227 15.3245 36.8373 15.0259 36.208C14.7272 35.5787 14.5779 34.8267 14.5779 33.952C14.5779 33.0773 14.7272 32.3307 15.0259 31.712C15.3245 31.0827 15.7405 30.6027 16.2739 30.272C16.8072 29.9307 17.4259 29.76 18.1299 29.76C18.8125 29.76 19.4099 29.9307 19.9219 30.272C20.4445 30.6027 20.7912 31.0507 20.9619 31.616H20.7859L20.9619 29.92H22.8819C22.8499 30.2507 22.8179 30.5867 22.7859 30.928C22.7645 31.2693 22.7539 31.6053 22.7539 31.936V38H20.7699L20.7539 36.336H20.9459C20.7752 36.8907 20.4285 37.3333 19.9059 37.664C19.3832 37.9947 18.7912 38.16 18.1299 38.16ZM18.6899 36.624C19.3192 36.624 19.8259 36.4053 20.2099 35.968C20.5939 35.52 20.7859 34.848 20.7859 33.952C20.7859 33.056 20.5939 32.3893 20.2099 31.952C19.8259 31.5147 19.3192 31.296 18.6899 31.296C18.0605 31.296 17.5539 31.5147 17.1699 31.952C16.7859 32.3893 16.5939 33.056 16.5939 33.952C16.5939 34.848 16.7805 35.52 17.1539 35.968C17.5379 36.4053 18.0499 36.624 18.6899 36.624ZM24.9158 38V31.984C24.9158 31.6427 24.9051 31.296 24.8838 30.944C24.8731 30.592 24.8464 30.2507 24.8038 29.92H26.7398L26.9638 32.128H26.6438C26.7504 31.5947 26.9264 31.152 27.1718 30.8C27.4278 30.448 27.7371 30.1867 28.0998 30.016C28.4624 29.8453 28.8571 29.76 29.2838 29.76C29.4758 29.76 29.6304 29.7707 29.7478 29.792C29.8651 29.8027 29.9824 29.8293 30.0998 29.872L30.0838 31.632C29.8811 31.5467 29.7051 31.4933 29.5558 31.472C29.4171 31.4507 29.2411 31.44 29.0278 31.44C28.5691 31.44 28.1798 31.536 27.8598 31.728C27.5504 31.92 27.3158 32.1867 27.1558 32.528C27.0064 32.8693 26.9318 33.2587 26.9318 33.696V38H24.9158ZM31.213 38V26.224H33.213V33.36H33.245L36.525 29.92H38.941L34.861 34.192L34.877 33.392L39.229 38H36.749L33.245 34.384H33.213V38H31.213ZM43.7889 38.16C42.4342 38.16 41.3729 37.7867 40.6049 37.04C39.8369 36.2933 39.4529 35.2693 39.4529 33.968C39.4529 33.1253 39.6182 32.3893 39.9489 31.76C40.2795 31.1307 40.7382 30.64 41.3249 30.288C41.9222 29.936 42.6155 29.76 43.4049 29.76C44.1835 29.76 44.8342 29.9253 45.3569 30.256C45.8795 30.5867 46.2742 31.0507 46.5409 31.648C46.8182 32.2453 46.9569 32.944 46.9569 33.744V34.272H41.0689V33.216H45.5329L45.2609 33.44C45.2609 32.6933 45.1009 32.1227 44.7809 31.728C44.4715 31.3333 44.0182 31.136 43.4209 31.136C42.7595 31.136 42.2475 31.3707 41.8849 31.84C41.5329 32.3093 41.3569 32.9653 41.3569 33.808V34.016C41.3569 34.8907 41.5702 35.5467 41.9969 35.984C42.4342 36.4107 43.0475 36.624 43.8369 36.624C44.2955 36.624 44.7222 36.5653 45.1169 36.448C45.5222 36.32 45.9062 36.1173 46.2689 35.84L46.8609 37.184C46.4769 37.4933 46.0182 37.7333 45.4849 37.904C44.9515 38.0747 44.3862 38.16 43.7889 38.16ZM52.0753 38.16C51.1153 38.16 50.3899 37.9093 49.8993 37.408C49.4086 36.9067 49.1633 36.1547 49.1633 35.152V31.424H47.6113V29.92H49.1633V27.856L51.1633 27.344V29.92H53.3233V31.424H51.1633V35.024C51.1633 35.5787 51.2699 35.968 51.4833 36.192C51.6966 36.416 51.9899 36.528 52.3633 36.528C52.5659 36.528 52.7366 36.512 52.8753 36.48C53.0246 36.448 53.1686 36.4053 53.3073 36.352V37.936C53.1259 38.0107 52.9233 38.064 52.6993 38.096C52.4859 38.1387 52.2779 38.16 52.0753 38.16Z" fill="#FCFCFC"/>
<path d="M63.3552 25.7671L69.809 17.0685L68.9164 23.0274L72.4866 13.3699L79.6955 4.39726L79.2836 9.73973L79.6955 10.5212L83.197 2L90.8866 18.1644L90.6119 13.3699L94.1821 16.863L99.1254 26.863L98.8507 29.0548L101.391 28.2329L103.451 30.9041L104 34.3288L100.087 40.0822L95.8298 41.0411L93.2896 46.3151L93.0836 44.6027L89.5821 52.5479L89.5134 50.6301L84.3642 59.8767V55.9726L81.0687 62L74.6836 53.3014V55.4247L69.191 44.8082V46.7945L66.1015 41.0411L62.0507 40.1507L58 34.3288L58.6179 30.9041L60.609 28.3699L63.9045 29.6712L63.3552 25.7671Z" fill="#0A0A0A" stroke="#FCFCFC" stroke-miterlimit="10"/>
<path d="M67.0627 29.2604L72.0746 27.548L74.6149 29.6713L73.1045 27.2056L81.1373 32.7535L89.1461 27.2056L87.6597 29.6713L90.2 27.548L95.1433 29.2604L96.1045 32.8905L94.2508 36.3152L92.7403 37.1371L93.8388 36.9316L92.603 39.3289L89.1015 38.0275L89.3075 37.0686L92.8776 35.0138L93.6026 33.2672L92.603 30.8357L83.3343 33.9179L84.0209 32.2741L81 34.9453L78.2537 32.3426L78.9403 33.8494L69.7403 30.8357L68.6137 33.2672L69.3284 35.0138L72.8299 37.0001L72.9672 38.1645L70.0149 39.8083L66.1702 32.822L67.0627 29.2604Z" fill="#FCFCFC"/>
<path d="M59.5791 31.2466L60.815 29.7397L63.9045 30.6987L64.1791 32L61.5015 31.0411L60.8836 31.5891L60.5403 33.6439L62.6 32.9589V36.7945L65.415 37.8219L65.9642 39.8767L62.3941 38.6439L59.1672 33.8493L59.5791 31.2466Z" fill="#FCFCFC"/>
<path d="M98.2329 30.6987L101.322 29.7397L102.558 31.1781L102.97 33.9178L99.7433 38.6439L96.2418 39.8767L96.7911 37.8219L99.5373 36.7945V32.8904L101.597 33.7123L101.322 31.6576L100.773 31.0411L97.9582 32L98.2329 30.6987Z" fill="#FCFCFC"/>
<path d="M72.1557 39.8768L75.0956 38.3014L77.7732 40.9042L76.812 38.5754L79.8329 36.7261L80.9314 37.685L82.0031 36.7261L85.1195 38.6439L84.1445 40.9042L86.8359 38.3699L89.7195 39.4658L91.2986 41.8631L90.2687 44.5343L73.6538 47.137L71.3195 42.685L72.1557 39.8768Z" fill="#FCFCFC"/>
<path d="M74.3403 48.3017L89.8567 45.3564L86.3552 50.9729V48.6441L83.1284 52.6167L80.3821 49.74L79.2149 54.9455L74.3403 48.3017Z" fill="#FCFCFC"/>
<path d="M77.8418 38.7809L79.6955 37.6851L80.4508 38.3015L77.8418 38.7809Z" fill="#0A0A0A"/>
<path d="M82.1672 37.5479L84.0209 38.7122L81.5493 38.3698L82.1672 37.5479Z" fill="#0A0A0A"/>
<path d="M71.8687 23.5752L76.6746 13.6437L79.2149 16.4519L82.6478 10.8354L89.994 21.9313L82.5791 13.6437L79.3522 18.9176L77.0866 16.3834L71.8687 23.5752Z" fill="#FF7830"/>
<path d="M74.1343 22.9586L77.2239 18.712L79.7642 20.6298L82.7164 15.9038L87.3851 21.0408L82.9224 17.7531L80.1075 22.2737L77.2925 20.2189L74.1343 23.0435" fill="#FF7830"/>
<path d="M109.264 38V26.72H111.072L115.216 36.048H114.72L118.864 26.72H120.656V38H118.784V29.632H119.36L115.568 38H114.336L110.544 29.632H111.136V38H109.264ZM126.658 38.16C125.826 38.16 125.106 37.9893 124.498 37.648C123.89 37.3067 123.415 36.8213 123.074 36.192C122.743 35.5627 122.578 34.816 122.578 33.952C122.578 33.088 122.743 32.3467 123.074 31.728C123.415 31.0987 123.89 30.6133 124.498 30.272C125.106 29.9307 125.826 29.76 126.658 29.76C127.49 29.76 128.21 29.9307 128.818 30.272C129.437 30.6133 129.911 31.0987 130.242 31.728C130.583 32.3467 130.754 33.088 130.754 33.952C130.754 34.816 130.583 35.5627 130.242 36.192C129.911 36.8213 129.437 37.3067 128.818 37.648C128.21 37.9893 127.49 38.16 126.658 38.16ZM126.658 36.624C127.287 36.624 127.789 36.4053 128.162 35.968C128.535 35.52 128.722 34.848 128.722 33.952C128.722 33.056 128.535 32.3893 128.162 31.952C127.789 31.5147 127.287 31.296 126.658 31.296C126.029 31.296 125.527 31.5147 125.154 31.952C124.781 32.3893 124.594 33.056 124.594 33.952C124.594 34.848 124.781 35.52 125.154 35.968C125.527 36.4053 126.029 36.624 126.658 36.624ZM132.479 38V31.936C132.479 31.6053 132.468 31.2693 132.447 30.928C132.425 30.5867 132.393 30.2507 132.351 29.92H134.287L134.447 31.52H134.255C134.511 30.9547 134.889 30.5227 135.391 30.224C135.892 29.9147 136.473 29.76 137.135 29.76C138.084 29.76 138.799 30.0267 139.279 30.56C139.759 31.0933 139.999 31.9253 139.999 33.056V38H137.999V33.152C137.999 32.5013 137.871 32.0373 137.615 31.76C137.369 31.472 136.996 31.328 136.495 31.328C135.876 31.328 135.385 31.52 135.023 31.904C134.66 32.288 134.479 32.8 134.479 33.44V38H132.479ZM142.119 38V26.224H144.119V33.36H144.151L147.431 29.92H149.847L145.767 34.192L145.783 33.392L150.135 38H147.655L144.151 34.384H144.119V38H142.119ZM154.695 38.16C153.34 38.16 152.279 37.7867 151.511 37.04C150.743 36.2933 150.359 35.2693 150.359 33.968C150.359 33.1253 150.524 32.3893 150.855 31.76C151.186 31.1307 151.644 30.64 152.231 30.288C152.828 29.936 153.522 29.76 154.311 29.76C155.09 29.76 155.74 29.9253 156.263 30.256C156.786 30.5867 157.18 31.0507 157.447 31.648C157.724 32.2453 157.863 32.944 157.863 33.744V34.272H151.975V33.216H156.439L156.167 33.44C156.167 32.6933 156.007 32.1227 155.687 31.728C155.378 31.3333 154.924 31.136 154.327 31.136C153.666 31.136 153.154 31.3707 152.791 31.84C152.439 32.3093 152.263 32.9653 152.263 33.808V34.016C152.263 34.8907 152.476 35.5467 152.903 35.984C153.34 36.4107 153.954 36.624 154.743 36.624C155.202 36.624 155.628 36.5653 156.023 36.448C156.428 36.32 156.812 36.1173 157.175 35.84L157.767 37.184C157.383 37.4933 156.924 37.7333 156.391 37.904C155.858 38.0747 155.292 38.16 154.695 38.16ZM159.272 41.632L158.808 40.048C159.309 39.9413 159.73 39.8187 160.072 39.68C160.413 39.5413 160.696 39.36 160.92 39.136C161.144 38.912 161.33 38.624 161.48 38.272L161.88 37.328L161.832 38.112L158.312 29.92H160.44L162.968 36.224H162.504L165.048 29.92H167.064L163.384 38.448C163.138 39.024 162.872 39.4987 162.584 39.872C162.296 40.256 161.986 40.56 161.656 40.784C161.325 41.0187 160.962 41.2 160.568 41.328C160.173 41.456 159.741 41.5573 159.272 41.632ZM170.843 38.16C170.15 38.16 169.51 38.08 168.923 37.92C168.347 37.7493 167.862 37.5147 167.467 37.216L168.027 35.872C168.432 36.1493 168.88 36.3627 169.371 36.512C169.862 36.6613 170.358 36.736 170.859 36.736C171.392 36.736 171.787 36.6453 172.043 36.464C172.31 36.2827 172.443 36.0373 172.443 35.728C172.443 35.4827 172.358 35.2907 172.187 35.152C172.027 35.0027 171.766 34.8907 171.403 34.816L169.803 34.512C169.12 34.3627 168.598 34.1067 168.235 33.744C167.883 33.3813 167.707 32.9067 167.707 32.32C167.707 31.8187 167.84 31.376 168.107 30.992C168.384 30.608 168.774 30.3093 169.275 30.096C169.787 29.872 170.384 29.76 171.067 29.76C171.664 29.76 172.224 29.84 172.747 30C173.28 30.16 173.728 30.4 174.091 30.72L173.515 32.016C173.184 31.7493 172.806 31.5413 172.379 31.392C171.952 31.2427 171.536 31.168 171.131 31.168C170.576 31.168 170.171 31.2693 169.915 31.472C169.659 31.664 169.531 31.9147 169.531 32.224C169.531 32.4587 169.606 32.656 169.755 32.816C169.915 32.9653 170.16 33.0773 170.491 33.152L172.091 33.456C172.806 33.5947 173.344 33.84 173.707 34.192C174.08 34.5333 174.267 35.0027 174.267 35.6C174.267 36.1333 174.123 36.592 173.835 36.976C173.547 37.36 173.147 37.6533 172.635 37.856C172.123 38.0587 171.526 38.16 170.843 38.16Z" fill="#FCFCFC"/>
</svg>
